<?xml version="1.0" standalone="no"?>
<!DOCTYPE svg PUBLIC "-//W3C//DTD SVG 20010904//EN"
 "http://www.w3.org/TR/2001/REC-SVG-20010904/DTD/svg10.dtd">
<svg version="1.0" xmlns="http://www.w3.org/2000/svg"
 width="69.000000pt" height="115.000000pt" viewBox="0 0 69.000000 115.000000"
 preserveAspectRatio="xMidYMid meet">
<metadata>
Created by potrace 1.10, written by Peter Selinger 2001-2011
</metadata>
<g transform="translate(0.000000,115.000000) scale(0.100000,-0.100000)"
fill="#000000" stroke="none">
<path d="M176 978 c-5 -206 -7 -220 -24 -213 -7 3 -10 1 -7 -4 3 -5 1 -12 -5
-16 -44 -27 -50 -171 -11 -257 37 -80 101 -170 117 -164 8 3 13 2 10 -3 -3 -5
1 -14 9 -21 11 -9 15 -36 16 -104 l0 -91 15 40 c9 22 18 69 22 104 6 56 10 65
28 66 19 1 22 -5 28 -58 7 -66 25 -137 36 -137 4 0 6 36 4 81 l-2 81 44 43
c24 24 44 49 44 54 0 6 4 11 8 11 9 0 66 114 67 134 1 6 6 29 13 51 12 43 9
79 -13 131 -7 18 -11 34 -9 37 3 2 -3 10 -13 18 -15 12 -16 12 -8 -1 4 -8 4
-12 0 -7 -16 14 -19 40 -22 220 -4 166 -5 177 -23 177 -18 0 -19 -10 -22 -162
-3 -172 1 -198 44 -261 52 -75 44 -165 -27 -286 -51 -87 -84 -111 -152 -111
-52 0 -59 3 -92 38 -57 60 -104 163 -109 239 -4 60 -2 67 34 126 l39 62 3 178
c3 172 3 177 -17 177 -19 0 -20 -8 -25 -172z"/>
<path d="M210 548 c0 -27 17 -48 38 -48 21 0 10 41 -15 58 -22 14 -23 13 -23
-10z"/>
<path d="M457 559 c-10 -6 -17 -22 -17 -41 0 -26 2 -29 16 -18 37 31 38 79 1
59z"/>
<path d="M300 375 c0 -9 5 -15 11 -13 6 2 11 8 11 13 0 5 -5 11 -11 13 -6 2
-11 -4 -11 -13z"/>
<path d="M370 374 c0 -17 22 -14 28 4 2 7 -3 12 -12 12 -9 0 -16 -7 -16 -16z"/>
<path d="M322 182 c-15 -71 -15 -72 -4 -71 4 0 6 10 4 22 -1 16 0 18 7 8 5 -7
14 -11 19 -7 6 4 16 -3 22 -15 20 -36 20 -16 0 56 -14 53 -19 63 -20 40 l-2
-30 -7 30 c-5 26 -8 23 -19 -33z"/>
</g>
</svg>
